<?xml version="1.0" encoding="utf-8"?>
<!-- Generator: Adobe Illustrator 24.0.2, SVG Export Plug-In . SVG Version: 6.00 Build 0)  -->
<svg version="1.1" id="logok" xmlns="http://www.w3.org/2000/svg" xmlns:xlink="http://www.w3.org/1999/xlink" x="0px" y="0px"
	 viewBox="0 0 161.4 75.9" style="enable-background:new 0 0 161.4 75.9;" xml:space="preserve">
<style type="text/css">
	.st0{fill:#AA885F;}
</style>
<g>
	<polygon class="st0" points="142.7,1 114.8,38 142.7,74.9 161.4,74.9 132.6,38 160.4,1 	"/>
	<path class="st0" d="M55.9,38c0,13.2,6.5,38,37.6,38c12.3,0,21.3-3.3,21.3-3.3V54.2h-1c-2.3,9.4-9,17.9-19.2,17.9
		c-12.6,0-21.1-13.3-21.1-34.2v0c0-20.9,8.4-34.2,21.1-34.2c10.2,0,16.9,8.6,19.2,17.9h1V3.3c0,0-9-3.3-21.3-3.3
		C62.4,0,55.9,24.8,55.9,38L55.9,38z"/>
	<g>
		<path class="st0" d="M25.3,37.5v0.9c5.8,0.4,11.3,6.5,12.7,12h0.9v-25h-0.9C36.6,31,31.1,37.1,25.3,37.5z"/>
		<path class="st0" d="M49.8,21.7h1V1H0c0,0,2.5,3.9,2.5,14.1v59.8h48.4V54.2h-1c-1.6,6.6-5.5,16.5-18.9,16.5H18.8V5.2h12.1
			C44.3,5.2,48.2,15.1,49.8,21.7z"/>
	</g>
</g>
</svg>
