<?xml version="1.0" encoding="utf-8"?>
<!-- Generator: Adobe Illustrator 24.0.2, SVG Export Plug-In . SVG Version: 6.00 Build 0)  -->
<svg version="1.1" id="logok" xmlns="http://www.w3.org/2000/svg" xmlns:xlink="http://www.w3.org/1999/xlink" x="0px" y="0px"
	 viewBox="0 0 180.8 73.9" style="enable-background:new 0 0 180.8 73.9;" xml:space="preserve">
<style type="text/css">
	.st0{fill:#AA885F;}
</style>
<g>
	<polygon class="st0" points="162,0 134.2,37 162,73.9 180.8,73.9 152,37 179.8,0 	"/>
	<g>
		<path class="st0" d="M25.3,36.5v0.9c5.8,0.4,11.3,6.5,12.7,12h0.9v-25h-0.9C36.6,30,31.1,36.1,25.3,36.5z"/>
		<path class="st0" d="M49.8,20.7h1V0H0c0,0,2.5,3.9,2.5,14.1v59.8h48.4V53.2h-1c-1.6,6.6-5.5,16.5-18.9,16.5H18.8V4.2h12.1
			C44.3,4.2,48.2,14.1,49.8,20.7z"/>
	</g>
	<path class="st0" d="M111.2,0v34.3H80.9V0H62.1c0,0,2.5,3.9,2.5,14.1v59.8h16.3V39.6h30.3v34.3h16.3V14.1c0-10.2,2.5-14.1,2.5-14.1
		H111.2z"/>
</g>
</svg>
