<?xml version="1.0" encoding="utf-8"?>
<!-- Generator: Adobe Illustrator 24.0.2, SVG Export Plug-In . SVG Version: 6.00 Build 0)  -->
<svg version="1.1" id="logok" xmlns="http://www.w3.org/2000/svg" xmlns:xlink="http://www.w3.org/1999/xlink" x="0px" y="0px"
	 viewBox="0 0 124.5 110.9" style="enable-background:new 0 0 124.5 110.9;" xml:space="preserve">
<style type="text/css">
	.st0{fill:#AA885F;}
</style>
<g>
	<g>
		<g>
			<path class="st0" d="M54.4,35.3C63.1,33,72.4,27.9,72.4,17c0-13.1-12.1-17-29-17h-9v2.6c7.2,0,19.9,1.3,19.9,14.8
				c0,14.7-9,16.9-15.1,16.9V37c2,0,16.2,1.2,16.2,15.9c0,14.9-12.5,18.4-19.8,18.4h-1.2v2.6h6.8c19.5,0,33.5-5.5,33.5-21.2
				C74.7,42.3,65.9,37.2,54.4,35.3"/>
		</g>
		<polygon class="st0" points="123.5,0 105.8,0 77.9,37 105.8,73.9 124.5,73.9 95.7,37 		"/>
		<path class="st0" d="M6,0c0,0,2.5,3.9,2.5,14.1v78.5c0,8.7-4.9,15.2-8.4,17.4v0.9c0,0,25.2,0,25.2-23.4V0H6z"/>
	</g>
</g>
</svg>
