<?xml version="1.0" encoding="utf-8"?>
<!-- Generator: Adobe Illustrator 24.0.2, SVG Export Plug-In . SVG Version: 6.00 Build 0)  -->
<svg version="1.1" id="logok" xmlns="http://www.w3.org/2000/svg" xmlns:xlink="http://www.w3.org/1999/xlink" x="0px" y="0px"
	 viewBox="0 0 124.5 110.9" style="enable-background:new 0 0 124.5 110.9;" xml:space="preserve">
<style type="text/css">
	.st0{fill:#AA885F;}
</style>
<g>
	<g>
		<g>
			<path class="st0" d="M54.4,35.3C63.1,33,72.4,27.9,72.4,17c0-13.1-12.1-17-29-17h-9v2.6c7.2,0,19.9,1.3,19.9,14.8
				c0,14.7-9,16.9-15.1,16.9V37c2,0,16.2,1.2,16.2,15.9c0,14.9-12.5,18.4-19.8,18.4h-1.2v2.6h6.8c19.5,0,33.5-5.5,33.5-21.2
				C74.7,42.3,65.9,37.2,54.4,35.3"/>
		</g>
		<polygon class="st0" points="123.5,0 105.8,0 77.9,37 105.8,73.9 124.5,73.9 95.7,37 		"/>
		<path class="st0" d="M6,0c0,0,2.5,3.9,2.5,14.1v78.5c0,8.7-4.9,15.2-8.4,17.4v0.9c0,0,25.2,0,25.2-23.4V0H6z"/>
	</g>
	<g>
		<g>
			<path class="st0" d="M34.4,91.5h3.7v13.7h7.1v3H34.4V91.5z"/>
			<path class="st0" d="M53.1,91.5h3.7v16.7h-3.7V91.5z"/>
			<path class="st0" d="M65.3,99.9c0-5.6,3.8-8.8,8.7-8.8c2.5,0,4.3,1.1,5.4,2.2l-2,2.2c-0.9-0.8-1.9-1.3-3.4-1.3
				c-2.9,0-5,2.1-5,5.8c0,3.5,1.7,5.7,5.1,5.7c0.9,0,1.8-0.2,2.3-0.6v-3.4h-3.1V99h6.4v7.6c-1.3,1.2-3.5,2-5.9,2
				C69,108.6,65.3,105.6,65.3,99.9z"/>
			<path class="st0" d="M88.8,91.5h3.7v6.5h6.7v-6.5h3.7v16.7h-3.7v-7.1h-6.7v7.1h-3.7V91.5z"/>
			<path class="st0" d="M115.7,94.5h-5v-3h13.7v3h-5v13.7h-3.7V94.5z"/>
		</g>
	</g>
</g>
</svg>
