<?xml version="1.0" encoding="utf-8"?>
<!-- Generator: Adobe Illustrator 24.0.2, SVG Export Plug-In . SVG Version: 6.00 Build 0)  -->
<svg version="1.1" id="Layer_1" xmlns="http://www.w3.org/2000/svg" xmlns:xlink="http://www.w3.org/1999/xlink" x="0px" y="0px"
	 viewBox="0 0 38 38" style="enable-background:new 0 0 38 38;" xml:space="preserve">
<style type="text/css">
	.st0{fill:#AA8961;}
	.st1{fill:#D6D6D6;}
</style>
<g>
	<path class="st1" d="M19,1c9.9,0,18,8.1,18,18s-8.1,18-18,18S1,28.9,1,19S9.1,1,19,1 M19,0C8.5,0,0,8.5,0,19s8.5,19,19,19
		s19-8.5,19-19S29.5,0,19,0L19,0z"/>
</g>
<path class="st0" d="M21.5,12.7H23v-2.5c-0.3,0-1.1-0.1-2.1-0.1c-2.1,0-3.6,1.3-3.6,3.8V16H15v2.8h2.3V26h2.8v-7.2h2.2l0.4-2.8h-2.6
	v-2C20.2,13.2,20.4,12.7,21.5,12.7L21.5,12.7z"/>
</svg>
