<?xml version="1.0" encoding="utf-8"?>
<!-- Generator: Adobe Illustrator 24.0.2, SVG Export Plug-In . SVG Version: 6.00 Build 0)  -->
<svg version="1.1" id="Layer_1" xmlns="http://www.w3.org/2000/svg" xmlns:xlink="http://www.w3.org/1999/xlink" x="0px" y="0px"
	 viewBox="0 0 38 38" style="enable-background:new 0 0 38 38;" xml:space="preserve">
<style type="text/css">
	.st0{fill:#AA8961;}
	.st1{fill:#D6D6D6;}
</style>
<g>
	<path class="st1" d="M19,1c9.9,0,18,8.1,18,18s-8.1,18-18,18S1,28.9,1,19S9.1,1,19,1 M19,0C8.5,0,0,8.5,0,19s8.5,19,19,19
		s19-8.5,19-19S29.5,0,19,0L19,0z"/>
</g>
<path class="st0" d="M27.8,19.2V25h-3.4v-5.4c0-1.4-0.5-2.3-1.7-2.3c-0.9,0-1.5,0.6-1.7,1.2c-0.1,0.2-0.1,0.5-0.1,0.8V25h-3.4
	c0,0,0-9.2,0-10.1h3.4v1.4c0,0,0,0,0,0h0v0c0.4-0.7,1.2-1.7,3-1.7C26.1,14.6,27.8,16.1,27.8,19.2z M14,10c-1.2,0-1.9,0.8-1.9,1.7
	c0,1,0.7,1.7,1.9,1.7h0c1.2,0,1.9-0.8,1.9-1.7C15.9,10.8,15.2,10,14,10z M12.3,25h3.4V14.9h-3.4V25z"/>
</svg>
