<?xml version="1.0" encoding="utf-8"?>
<!-- Generator: Adobe Illustrator 24.0.2, SVG Export Plug-In . SVG Version: 6.00 Build 0)  -->
<svg version="1.1" id="Layer_1" xmlns="http://www.w3.org/2000/svg" xmlns:xlink="http://www.w3.org/1999/xlink" x="0px" y="0px"
	 viewBox="0 0 38 38" style="enable-background:new 0 0 38 38;" xml:space="preserve">
<style type="text/css">
	.st0{fill:#AA8961;}
	.st1{fill:#D6D6D6;}
</style>
<g>
	<g>
		<path class="st0" d="M27,13.9c-0.6,0.3-1.2,0.4-1.9,0.5c0.7-0.4,1.2-1,1.4-1.8c-0.6,0.4-1.3,0.6-2,0.8c-0.6-0.6-1.4-1-2.4-1
			c-1.8,0-3.2,1.5-3.2,3.2c0,0.3,0,0.5,0.1,0.7c-2.7-0.1-5.1-1.4-6.7-3.4c-0.3,0.5-0.4,1-0.4,1.6c0,1.1,0.6,2.1,1.4,2.7
			c-0.5,0-1-0.2-1.5-0.4c0,0,0,0,0,0c0,1.6,1.1,2.9,2.6,3.2c-0.3,0.1-0.5,0.1-0.8,0.1c-0.2,0-0.4,0-0.6-0.1c0.4,1.3,1.6,2.2,3,2.3
			c-1.1,0.9-2.5,1.4-4,1.4c-0.3,0-0.5,0-0.8,0c1.4,0.9,3.1,1.4,5,1.4c5.9,0,9.2-4.9,9.2-9.2c0-0.1,0-0.3,0-0.4
			C26,15.1,26.6,14.5,27,13.9z"/>
	</g>
</g>
<g>
	<path class="st1" d="M19,1c9.9,0,18,8.1,18,18s-8.1,18-18,18S1,28.9,1,19S9.1,1,19,1 M19,0C8.5,0,0,8.5,0,19s8.5,19,19,19
		s19-8.5,19-19S29.5,0,19,0L19,0z"/>
</g>
</svg>
